<svg width="1812" height="715" viewBox="0 0 1812 715" fill="none" xmlns="http://www.w3.org/2000/svg">
<path d="M1038.36 550.057C1038.36 550.057 1019.16 558.257 1015.76 583.257C1011.76 612.457 1033.06 627.057 1033.06 627.057" stroke="#0094D4" stroke-width="3.5" stroke-miterlimit="10"/>
<path d="M381.76 270.857L256.86 268.257" stroke="#0094D4" stroke-width="3.5" stroke-miterlimit="10"/>
<path d="M1453.86 429.557C1454.16 423.157 1459.96 418.057 1466.66 418.457C1471.16 418.757 1475.46 420.257 1477.56 422.857C1481.76 427.957 1483.26 442.257 1476.56 447.657C1469.86 453.057 1460.36 452.057 1456.26 448.257C1453.76 446.057 1453.56 436.657 1453.86 429.557Z" stroke="#0094D4" stroke-width="3.5" stroke-miterlimit="10"/>
<path d="M1407.66 425.857C1407.86 419.457 1413.66 414.357 1420.36 414.757C1424.96 415.057 1429.16 416.557 1431.36 419.157C1435.46 424.257 1437.06 438.457 1430.36 443.857C1423.66 449.357 1414.06 448.357 1409.96 444.557C1407.46 442.257 1407.36 432.957 1407.66 425.857Z" stroke="#0094D4" stroke-width="3.5" stroke-miterlimit="10"/>
<path d="M1361.36 422.157C1361.66 415.657 1367.46 410.557 1374.16 411.057C1378.66 411.357 1382.96 412.857 1385.06 415.457C1389.26 420.557 1390.76 434.757 1384.06 440.157C1377.36 445.557 1367.86 444.557 1363.76 440.857C1361.26 438.557 1361.06 429.257 1361.36 422.157Z" stroke="#0094D4" stroke-width="3.5" stroke-miterlimit="10"/>
<path d="M1315.16 418.357C1315.36 411.957 1321.16 406.857 1327.86 407.357C1332.46 407.657 1336.66 409.157 1338.86 411.757C1342.96 416.757 1344.56 431.057 1337.86 436.457C1331.16 441.857 1321.56 440.857 1317.46 437.157C1314.96 434.857 1314.86 425.557 1315.16 418.357Z" stroke="#0094D4" stroke-width="3.5" stroke-miterlimit="10"/>
<path d="M1268.86 414.657C1269.16 408.257 1274.96 403.157 1281.66 403.557C1286.16 403.857 1290.46 405.357 1292.56 407.957C1296.76 413.057 1298.26 427.357 1291.56 432.757C1284.86 438.157 1275.36 437.157 1271.16 433.357C1268.76 431.157 1268.56 421.757 1268.86 414.657Z" stroke="#0094D4" stroke-width="3.5" stroke-miterlimit="10"/>
<path d="M1222.66 410.956C1222.86 404.556 1228.66 399.456 1235.36 399.856C1239.96 400.156 1244.16 401.657 1246.36 404.257C1250.46 409.357 1252.06 423.557 1245.36 429.057C1238.56 434.457 1229.06 433.457 1224.96 429.657C1222.46 427.457 1222.36 418.056 1222.66 410.956Z" stroke="#0094D4" stroke-width="3.5" stroke-miterlimit="10"/>
<path d="M1176.36 407.257C1176.66 400.857 1182.46 395.757 1189.16 396.157C1193.66 396.457 1197.96 397.957 1200.06 400.557C1204.26 405.657 1205.76 419.857 1199.06 425.257C1192.36 430.757 1182.86 429.757 1178.66 425.957C1176.26 423.657 1176.06 414.357 1176.36 407.257Z" stroke="#0094D4" stroke-width="3.5" stroke-miterlimit="10"/>
<path d="M1130.06 403.557C1130.36 397.057 1136.16 391.957 1142.86 392.457C1147.46 392.757 1151.66 394.257 1153.76 396.857C1157.96 401.857 1159.56 416.157 1152.86 421.557C1146.06 426.957 1136.56 425.957 1132.46 422.257C1129.96 419.957 1129.86 410.657 1130.06 403.557Z" stroke="#0094D4" stroke-width="3.5" stroke-miterlimit="10"/>
<path d="M1083.86 399.757C1084.16 393.357 1089.96 388.257 1096.66 388.757C1101.16 388.957 1105.46 390.557 1107.56 393.157C1111.66 398.157 1113.26 412.457 1106.56 417.857C1099.86 423.257 1090.36 422.257 1086.16 418.557C1083.76 416.257 1083.56 406.957 1083.86 399.757Z" stroke="#0094D4" stroke-width="3.5" stroke-miterlimit="10"/>
<path d="M1037.56 396.057C1037.86 389.657 1043.66 384.557 1050.36 384.957C1054.96 385.257 1059.16 386.757 1061.26 389.357C1065.46 394.457 1067.06 408.757 1060.26 414.157C1053.56 419.557 1044.06 418.557 1039.96 414.757C1037.46 412.557 1037.36 403.157 1037.56 396.057Z" stroke="#0094D4" stroke-width="3.5" stroke-miterlimit="10"/>
<path d="M991.358 392.356C991.558 385.956 997.458 380.856 1004.06 381.256C1008.66 381.556 1012.96 383.056 1015.06 385.656C1019.16 390.756 1020.76 404.956 1014.06 410.456C1007.36 415.856 997.858 414.856 993.658 411.056C991.158 408.856 991.058 399.456 991.358 392.356Z" stroke="#0094D4" stroke-width="3.5" stroke-miterlimit="10"/>
<path d="M945.059 388.657C945.359 382.157 951.159 377.157 957.859 377.557C962.359 377.857 966.659 379.357 968.759 381.957C972.959 387.057 974.559 401.257 967.759 406.657C961.059 412.157 951.559 411.157 947.459 407.357C944.959 405.057 944.859 395.757 945.059 388.657Z" stroke="#0094D4" stroke-width="3.5" stroke-miterlimit="10"/>
<path d="M898.859 384.957C899.059 378.457 904.859 373.357 911.559 373.857C916.159 374.157 920.359 375.657 922.559 378.257C926.659 383.257 928.259 397.557 921.559 402.957C914.859 408.357 905.259 407.357 901.159 403.657C898.659 401.357 898.559 392.057 898.859 384.957Z" stroke="#0094D4" stroke-width="3.5" stroke-miterlimit="10"/>
<path d="M852.559 381.157C852.859 374.757 858.659 369.657 865.359 370.057C869.859 370.357 874.159 371.857 876.259 374.457C880.459 379.557 881.959 393.857 875.259 399.257C868.559 404.657 859.059 403.657 854.959 399.857C852.459 397.657 852.259 388.357 852.559 381.157Z" stroke="#0094D4" stroke-width="3.5" stroke-miterlimit="10"/>
<path d="M806.359 377.457C806.559 371.057 812.359 365.956 819.059 366.356C823.659 366.656 827.859 368.157 830.059 370.757C834.159 375.857 835.759 390.157 829.059 395.557C822.359 400.957 812.759 399.957 808.659 396.157C806.159 393.957 806.059 384.557 806.359 377.457Z" stroke="#0094D4" stroke-width="3.5" stroke-miterlimit="10"/>
<path d="M760.06 373.757C760.36 367.357 766.16 362.257 772.86 362.657C777.36 362.957 781.659 364.457 783.759 367.057C787.959 372.157 789.459 386.357 782.759 391.757C776.059 397.257 766.56 396.257 762.46 392.457C759.96 390.157 759.76 380.857 760.06 373.757Z" stroke="#0094D4" stroke-width="3.5" stroke-miterlimit="10"/>
<path d="M662.059 365.357C662.259 358.957 668.059 353.857 674.759 354.357C679.359 354.657 683.559 356.157 685.759 358.757C689.859 363.757 691.459 378.057 684.759 383.457C678.059 388.857 668.46 387.857 664.36 384.157C661.86 381.857 661.759 372.557 662.059 365.357Z" stroke="#0094D4" stroke-width="3.5" stroke-miterlimit="10"/>
<path d="M615.759 361.657C616.059 355.257 621.859 350.157 628.559 350.557C633.059 350.857 637.359 352.357 639.459 354.957C643.659 360.057 645.159 374.357 638.459 379.757C631.759 385.157 622.259 384.157 618.059 380.357C615.659 378.157 615.459 368.857 615.759 361.657Z" stroke="#0094D4" stroke-width="3.5" stroke-miterlimit="10"/>
<path d="M569.559 357.957C569.759 351.557 575.559 346.456 582.259 346.856C586.859 347.156 591.059 348.657 593.259 351.257C597.359 356.357 598.959 370.557 592.259 376.057C585.459 381.457 575.96 380.457 571.86 376.657C569.36 374.457 569.259 365.057 569.559 357.957Z" stroke="#0094D4" stroke-width="3.5" stroke-miterlimit="10"/>
<path d="M523.26 354.257C523.56 347.857 529.36 342.757 536.06 343.157C540.56 343.457 544.86 344.957 546.96 347.557C551.06 352.657 552.66 366.857 545.96 372.257C539.26 377.757 529.76 376.757 525.56 372.957C523.16 370.657 522.96 361.357 523.26 354.257Z" stroke="#0094D4" stroke-width="3.5" stroke-miterlimit="10"/>
<path d="M476.959 350.557C477.259 344.057 483.059 338.957 489.759 339.457C494.359 339.757 498.559 341.257 500.659 343.857C504.859 348.857 506.459 363.157 499.759 368.557C492.959 373.957 483.459 372.957 479.359 369.257C476.859 366.957 476.759 357.657 476.959 350.557Z" stroke="#0094D4" stroke-width="3.5" stroke-miterlimit="10"/>
<path d="M1729.56 407.356C1729.56 407.356 1706.46 432.157 1660.46 425.057C1656.86 430.357 1665.76 465.856 1665.76 465.856C1665.76 465.856 1728.16 488.856 1777.36 443.656" stroke="#0094D4" stroke-width="3.5" stroke-miterlimit="10"/>
<path d="M1508.86 415.757C1511.56 409.157 1554.06 414.457 1556.76 421.057C1559.36 427.757 1556.76 483.557 1552.76 488.857C1548.76 494.157 1516.86 492.857 1508.86 486.257C1500.96 479.557 1508.86 415.757 1508.86 415.757Z" stroke="#0094D4" stroke-width="3.5" stroke-miterlimit="10"/>
<path d="M705.359 351.756C708.359 345.956 745.559 350.456 747.759 356.356C749.959 362.456 745.659 418.656 741.359 424.456C737.059 430.256 705.159 427.756 698.159 420.256C691.259 412.856 705.359 351.756 705.359 351.756Z" stroke="#0094D4" stroke-width="3.5" stroke-miterlimit="10"/>
<path d="M1135.86 458.757C1130.56 460.557 373.86 701.557 373.86 701.557" stroke="#0094D4" stroke-width="3.5" stroke-miterlimit="10"/>
<path d="M764.56 476.457L792.46 481.457C802.56 483.957 803.96 497.657 794.66 502.257L661.56 566.557C658.86 567.857 655.76 568.057 652.96 567.057L613.06 552.657" stroke="#0094D4" stroke-width="3.5" stroke-miterlimit="10"/>
<path d="M595.359 561.557L614.359 568.357C623.759 571.757 624.359 584.657 615.359 588.857L469.86 657.157C467.36 658.357 464.46 658.557 461.86 657.657L432.36 648.357" stroke="#0094D4" stroke-width="3.5" stroke-miterlimit="10"/>
<path d="M808.859 453.457L865.059 461.557C866.459 461.757 866.759 463.757 865.459 464.357L843.859 474.057C837.859 476.757 831.159 477.557 824.659 476.257L778.759 468.457" stroke="#0094D4" stroke-width="3.5" stroke-miterlimit="10"/>
<path d="M901.359 273.357C910.259 268.857 917.258 263.957 916.658 261.557L900.959 197.157C900.559 195.857 897.758 195.757 893.158 196.757L883.559 198.757" stroke="#0094D4" stroke-width="3.5" stroke-miterlimit="10"/>
<path d="M878.36 187.557C888.16 182.757 896.06 177.357 895.36 174.857L874.26 106.557C873.86 105.457 871.36 105.257 867.16 106.057L860.06 107.457" stroke="#0094D4" stroke-width="3.5" stroke-miterlimit="10"/>
<path d="M926.458 303.356C928.358 303.156 932.258 301.156 931.958 300.556L928.058 290.856C926.958 288.156 921.658 287.357 912.858 288.657" stroke="#0094D4" stroke-width="3.5" stroke-miterlimit="10"/>
<path d="M329.96 326.757L52.1604 382.557" stroke="#0094D4" stroke-width="3.5" stroke-miterlimit="10"/>
<path d="M878.859 98.1567L1107.46 320.057" stroke="#0094D4" stroke-width="3.5" stroke-miterlimit="10"/>
<path d="M469.56 265.557C469.56 265.557 430.96 268.257 407.06 250.957C383.16 233.657 182.46 38.2566 167.86 30.3566C153.16 22.3566 117.26 25.0566 117.26 25.0566" stroke="#0094D4" stroke-width="3.5" stroke-miterlimit="10"/>
<path d="M220.16 311.757C214.16 294.857 217.86 278.756 232.06 267.356C231.793 269.356 231.527 271.39 231.26 273.457C216.86 243.39 202.46 213.356 188.06 183.356C165.193 135.756 142.36 88.1899 119.56 40.6565C114.294 29.6565 108.994 18.6232 103.66 7.55649C102.06 4.25649 103.96 0.056494 107.96 0.056494C138.16 0.056494 167.56 -1.94352 193.06 17.8565C201.46 24.3565 209.16 31.9565 217.06 39.0565C254.993 73.2565 292.927 107.457 330.86 141.657C362.593 170.257 394.36 198.857 426.16 227.457C455.16 253.657 489.36 267.657 528.159 270.757C548.759 272.423 569.359 274.09 589.959 275.757C627.426 278.757 664.926 281.757 702.459 284.757C751.792 288.69 801.126 292.623 850.459 296.556C906.859 301.09 963.259 305.623 1019.66 310.157C1077.53 314.757 1135.36 319.357 1193.16 323.957C1247.56 328.357 1301.99 332.723 1356.46 337.056C1402.39 340.723 1448.32 344.39 1494.26 348.056C1526.66 350.656 1559.06 353.256 1591.46 355.856C1605.26 356.956 1619.06 357.957 1632.86 359.157C1645.56 360.357 1657.86 363.157 1669.56 368.257C1679.16 372.457 1687.66 378.456 1696.86 383.356C1719.46 395.356 1741.56 408.357 1762.36 423.157C1773.76 431.157 1784.96 439.856 1794.76 449.856C1801.96 457.156 1809.46 466.156 1811.56 476.456C1815.26 495.256 1794.96 504.257 1780.56 509.657C1754.76 519.257 1726.86 523.757 1699.76 527.557C1673.26 531.457 1646.56 534.257 1619.86 536.057C1599.66 537.457 1581.36 536.057 1561.26 534.357C1515.52 530.357 1469.76 526.357 1423.96 522.357C1367.22 517.357 1310.46 512.356 1253.66 507.356C1212.79 503.823 1171.89 500.257 1130.96 496.657C1124.89 496.123 1118.83 495.59 1112.76 495.057C1106.36 494.457 1106.26 484.457 1112.76 485.057C1135.83 487.057 1158.89 489.09 1181.96 491.157C1233.63 495.69 1285.32 500.19 1337.06 504.657C1391.26 509.457 1445.42 514.223 1499.56 518.956C1529.96 521.556 1560.26 524.356 1590.66 526.956C1598.76 527.556 1607.06 526.857 1615.16 526.357C1641.16 524.757 1667.06 522.157 1692.76 518.557C1720.06 514.757 1747.96 510.356 1774.16 501.356C1782.36 498.556 1791.86 495.156 1798.26 488.956C1803.66 483.656 1802.26 477.257 1798.76 471.057C1792.76 460.357 1782.96 451.757 1773.56 444.057C1761.96 434.557 1749.46 426.057 1736.76 418.057C1719.96 407.357 1702.26 398.656 1685.26 388.556C1668.56 378.756 1652.96 371.057 1633.36 369.257C1632.42 369.123 1631.52 369.023 1630.66 368.957C1624.72 368.49 1618.79 368.023 1612.86 367.556C1586.59 365.49 1560.36 363.39 1534.16 361.257C1492.89 357.99 1451.62 354.69 1410.36 351.356C1359.22 347.29 1308.09 343.223 1256.96 339.157C1200.43 334.623 1143.86 330.09 1087.26 325.556C1030.46 321.023 973.625 316.456 916.759 311.856C864.559 307.723 812.326 303.556 760.059 299.356C717.393 295.956 674.759 292.557 632.159 289.157C603.959 286.89 575.793 284.623 547.659 282.356C529.159 280.856 510.36 280.157 492.46 275.457C464.66 268.357 440.36 253.757 419.26 234.657C407.66 224.257 396.093 213.857 384.56 203.457C344.293 167.19 304.027 130.923 263.76 94.6565C239.46 72.7565 215.46 50.3565 190.76 28.8565C176.06 16.1565 158.36 10.1565 139.06 10.0565C128.76 10.0565 118.36 10.0565 107.96 10.0565C109.427 7.58983 110.894 5.08983 112.36 2.55649C126.76 32.5565 141.16 62.5899 155.56 92.6565C178.36 140.19 201.193 187.756 224.06 235.356C229.327 246.356 234.627 257.356 239.96 268.356C240.76 270.156 240.96 272.957 239.16 274.457C227.46 283.757 224.86 295.257 229.76 309.157C231.96 315.157 222.26 317.757 220.16 311.757Z" fill="#0E4496"/>
<path d="M790.459 466.856C782.192 466.123 773.926 465.39 765.659 464.656C745.659 462.923 725.692 461.156 705.759 459.356C680.959 457.223 656.159 455.056 631.359 452.856C609.093 450.923 586.826 448.99 564.559 447.056C551.559 445.923 538.593 444.79 525.659 443.656C523.959 443.456 522.259 443.456 520.659 442.956C516.959 441.756 513.459 440.256 509.859 438.856C493.059 432.59 476.259 426.323 459.46 420.056C436.593 411.523 413.726 402.956 390.86 394.356C369.46 386.356 348.06 378.39 326.66 370.456C314.86 365.99 303.093 361.556 291.36 357.156C290.826 356.956 290.26 356.756 289.66 356.556C287.16 355.656 285.46 353.156 286.16 350.456C286.86 347.956 289.76 345.956 292.36 346.956C300.693 350.023 308.993 353.123 317.26 356.256C336.993 363.656 356.726 371.023 376.46 378.356C399.726 387.09 422.96 395.79 446.159 404.456C465.159 411.523 484.159 418.623 503.159 425.756C508.559 427.756 513.993 429.79 519.459 431.856C520.759 432.356 522.059 432.756 523.359 433.256C524.959 433.956 522.159 433.356 522.959 433.356C532.659 433.856 542.359 435.056 551.959 435.956C572.626 437.756 593.293 439.556 613.959 441.356C638.759 443.556 663.559 445.723 688.359 447.856C710.159 449.79 731.959 451.723 753.759 453.656C765.426 454.656 777.126 455.656 788.859 456.656C789.392 456.723 789.926 456.79 790.459 456.856C793.159 457.056 795.459 458.956 795.459 461.856C795.459 464.356 793.159 467.056 790.459 466.856Z" fill="#0E4496"/>
<path d="M1135.86 327.556C1133.72 325.556 1131.59 323.523 1129.46 321.456C1123.66 315.923 1117.86 310.39 1112.06 304.856C1103.46 296.656 1094.89 288.456 1086.36 280.256C1075.83 270.256 1065.33 260.256 1054.86 250.256C1043.39 239.256 1031.93 228.256 1020.46 217.256C1008.86 206.256 997.292 195.223 985.759 184.157C974.959 173.823 964.159 163.49 953.359 153.157C944.225 144.49 935.092 135.79 925.959 127.056C919.425 120.79 912.892 114.523 906.359 108.256C903.259 105.356 900.059 102.356 897.059 99.3565C896.925 99.2231 896.792 99.0898 896.659 98.9565C897.792 99.4898 898.959 99.9898 900.159 100.457C894.492 100.19 888.825 99.8898 883.159 99.5565C874.092 99.0898 864.992 98.6232 855.859 98.1565C853.792 98.0232 851.725 97.8898 849.659 97.7565C851.259 95.6898 852.859 93.5898 854.459 91.4565C855.059 93.3898 855.625 95.2898 856.159 97.1565C857.692 102.29 859.259 107.457 860.859 112.657C863.125 120.257 865.392 127.89 867.659 135.556C870.459 144.823 873.259 154.09 876.059 163.356C879.125 173.623 882.192 183.856 885.259 194.056C888.325 204.323 891.392 214.59 894.459 224.856C897.392 234.456 900.292 244.057 903.159 253.657C905.559 261.79 907.992 269.89 910.459 277.956C912.192 283.823 913.925 289.656 915.659 295.456C916.559 298.256 917.359 300.956 918.159 303.756C918.225 303.89 918.259 304.023 918.259 304.157C919.059 306.657 917.359 309.656 914.759 310.256C912.059 310.856 909.459 309.456 908.659 306.756C908.059 304.89 907.492 302.99 906.959 301.056C905.359 295.923 903.792 290.79 902.259 285.657C899.992 277.99 897.692 270.323 895.359 262.657C892.625 253.39 889.859 244.123 887.059 234.856C883.992 224.656 880.925 214.423 877.859 204.157C874.792 193.89 871.725 183.623 868.659 173.356C865.725 163.756 862.825 154.156 859.959 144.556C857.559 136.49 855.125 128.39 852.659 120.256C850.925 114.456 849.192 108.623 847.459 102.756C846.559 99.9565 845.659 97.2565 844.959 94.4565C844.892 94.3232 844.859 94.2232 844.859 94.1565C843.959 91.1565 846.459 87.6565 849.659 87.7565C863.659 88.4898 877.692 89.2565 891.759 90.0565C894.292 90.1898 896.825 90.3232 899.359 90.4565C901.059 90.4565 902.559 90.8565 903.859 92.0565C904.959 93.0565 906.059 94.1565 907.159 95.2565C913.092 100.923 919.025 106.59 924.959 112.256C934.759 121.59 944.525 130.923 954.259 140.256C966.525 151.99 978.792 163.69 991.059 175.356C1004.39 188.09 1017.73 200.857 1031.06 213.657C1044.19 226.19 1057.36 238.756 1070.56 251.356C1081.96 262.29 1093.39 273.223 1104.86 284.157C1113.32 292.223 1121.76 300.29 1130.16 308.356C1134.22 312.223 1138.32 316.123 1142.46 320.056C1142.59 320.19 1142.76 320.356 1142.96 320.556C1144.86 322.356 1144.86 325.756 1142.96 327.556C1140.86 329.456 1137.86 329.556 1135.86 327.556Z" fill="#0E4496"/>
<path d="M1164.66 480.356C1156.92 482.756 1149.23 485.123 1141.56 487.456C1120.69 493.79 1099.83 500.123 1078.96 506.456C1048.43 515.79 1017.89 525.09 987.359 534.356C950.559 545.556 913.759 556.756 876.959 567.956C837.359 580.023 797.759 592.09 758.159 604.156C719.226 616.023 680.293 627.89 641.359 639.756C606.493 650.356 571.626 660.956 536.759 671.556C509.426 679.89 482.126 688.223 454.86 696.556C438.526 701.49 422.193 706.456 405.86 711.456C402.86 712.356 399.86 713.456 396.86 714.156C394.76 714.756 392.56 714.356 390.36 714.156C379.76 713.356 369.16 712.156 358.66 710.256C347.56 708.356 335.96 706.056 326.16 700.556C323.36 699.056 322.76 694.856 325.06 692.656C327.56 690.356 331.36 689.056 334.26 687.556C341.593 683.823 348.96 680.09 356.36 676.356C381.86 663.456 407.36 650.756 432.759 637.956C467.093 620.823 501.393 603.69 535.659 586.556C572.393 568.223 609.159 549.89 645.959 531.556C678.892 515.156 711.826 498.756 744.759 482.356C767.359 471.156 789.926 459.923 812.459 448.656C817.792 445.99 823.159 443.323 828.559 440.656C831.159 439.356 833.459 438.656 836.459 438.556C862.359 437.456 888.359 436.956 914.359 436.856C957.859 436.756 1001.36 437.656 1044.66 441.256C1065.26 442.956 1085.86 445.356 1106.16 449.156C1121.86 452.156 1137.76 455.856 1152.36 462.756C1157.56 465.256 1162.56 468.256 1166.86 472.056C1171.66 476.356 1164.56 483.356 1159.76 479.156C1156.56 476.256 1150.96 473.056 1145.86 470.756C1140.16 468.056 1132.56 465.656 1125.76 463.856C1107.96 458.956 1089.56 456.156 1071.26 453.956C1028.06 448.756 984.459 447.356 940.959 446.956C909.159 446.69 877.359 447.123 845.559 448.256C842.292 448.323 839.059 448.423 835.859 448.556C835.259 448.656 834.359 448.856 833.859 448.656C832.859 448.356 837.059 447.256 836.059 448.156C833.359 450.356 828.959 451.656 825.859 453.156C806.459 462.823 787.059 472.49 767.659 482.156C736.859 497.49 706.059 512.823 675.259 528.156C638.992 546.223 602.693 564.323 566.359 582.456C531.026 600.056 495.693 617.69 460.36 635.356C432.426 649.29 404.526 663.29 376.66 677.356C362.16 684.556 347.66 691.656 333.46 699.256C332.56 699.756 330.26 701.456 332.16 699.756C331.826 697.156 331.493 694.523 331.16 691.856C341.06 697.456 353.16 699.356 364.26 701.156C373.66 702.656 383.16 703.656 392.66 704.356C393.36 704.356 394.26 704.256 394.96 704.456C395.56 704.756 393.26 704.856 393.86 704.656C394.06 704.556 394.26 704.556 394.46 704.456C395.66 703.956 396.96 703.756 398.06 703.356C411.726 699.223 425.36 695.09 438.96 690.956C464.093 683.29 489.226 675.623 514.359 667.956C547.826 657.756 581.259 647.59 614.659 637.456C652.859 625.79 691.092 614.156 729.359 602.556C768.826 590.49 808.292 578.456 847.759 566.456C885.492 554.99 923.225 543.49 960.959 531.956C993.025 522.223 1025.09 512.456 1057.16 502.656C1080.43 495.59 1103.73 488.523 1127.06 481.456C1138.26 477.956 1149.36 474.356 1160.56 471.156C1161.03 471.023 1161.49 470.89 1161.96 470.756C1168.16 468.856 1170.76 478.556 1164.66 480.356Z" fill="#0E4496"/>
<path d="M974.559 529.057C982.859 529.057 991.259 529.957 999.459 531.157C1006.46 532.257 1013.46 533.657 1020.26 535.757C1027.26 537.957 1034.26 540.857 1040.16 545.157C1041.76 546.257 1042.96 547.357 1043.36 549.257C1043.56 550.057 1043.66 550.957 1043.76 551.757C1043.86 553.057 1043.96 554.457 1043.96 555.857C1043.96 560.157 1043.66 564.457 1043.46 568.757C1042.76 580.057 1041.66 591.357 1040.56 602.657C1039.83 610.39 1039.03 618.123 1038.16 625.857C1038.09 626.523 1038.03 627.157 1037.96 627.757C1037.76 629.557 1036.66 630.857 1035.16 631.657C1033.83 632.457 1032.46 633.19 1031.06 633.857C1024.46 637.257 1017.46 640.057 1010.36 642.257C999.059 645.857 987.459 648.057 975.759 649.157C960.459 650.757 944.959 650.057 929.759 647.657C910.759 644.657 892.259 638.657 874.759 630.557C869.893 628.357 865.126 625.99 860.459 623.457C858.959 622.657 857.859 620.857 857.959 619.157C858.226 613.49 858.526 607.79 858.859 602.057C859.326 592.99 859.793 583.923 860.259 574.857C860.393 572.79 860.493 570.723 860.559 568.657C860.759 566.057 862.759 563.457 865.559 563.657C868.159 563.757 870.759 565.857 870.559 568.657C870.293 574.323 869.993 579.99 869.659 585.657C869.193 594.723 868.726 603.79 868.259 612.857C868.193 614.923 868.093 617.023 867.959 619.157C867.093 617.69 866.259 616.257 865.459 614.857C870.193 617.39 874.959 619.757 879.759 621.957C880.826 622.423 881.893 622.89 882.959 623.357C883.559 623.623 884.126 623.89 884.659 624.157C884.926 624.29 885.226 624.39 885.559 624.457C886.259 624.857 884.459 624.057 885.759 624.657C888.026 625.523 890.259 626.39 892.459 627.257C900.959 630.457 909.659 633.157 918.459 635.257C922.593 636.257 926.759 637.09 930.959 637.757C931.893 637.89 932.826 638.023 933.759 638.157C934.226 638.223 934.692 638.323 935.159 638.457C935.426 638.457 935.692 638.49 935.959 638.557C936.559 638.557 934.859 638.357 935.859 638.457C937.792 638.723 939.759 638.957 941.759 639.157C948.959 639.89 956.192 640.157 963.459 639.957C966.792 639.89 970.126 639.723 973.459 639.457C974.992 639.323 976.526 639.157 978.059 638.957C978.859 638.89 979.626 638.79 980.359 638.657C980.692 638.657 981.059 638.623 981.459 638.557C981.459 638.557 980.159 638.757 980.959 638.657C981.226 638.59 981.459 638.557 981.659 638.557C987.192 637.757 992.692 636.69 998.159 635.357C1002.69 634.223 1007.16 632.89 1011.56 631.357C1013.43 630.69 1015.29 629.99 1017.16 629.257C1017.96 628.923 1018.79 628.59 1019.66 628.257C1020.46 627.957 1018.26 628.857 1019.16 628.457C1019.29 628.39 1019.46 628.323 1019.66 628.257C1020.06 628.057 1020.46 627.89 1020.86 627.757C1024.16 626.257 1027.26 624.557 1030.46 622.857C1030.46 622.857 1030.49 622.823 1030.56 622.757C1029.76 624.223 1028.93 625.657 1028.06 627.057C1028.99 618.923 1029.83 610.79 1030.56 602.657C1031.96 589.157 1033.26 575.557 1033.76 561.957C1033.86 559.457 1033.96 556.857 1033.96 554.257C1033.86 553.457 1033.86 552.557 1033.76 551.657C1033.66 550.957 1034.06 553.357 1033.86 552.457C1033.86 552.257 1033.83 552.09 1033.76 551.957C1033.56 551.257 1033.36 551.157 1034.06 552.557C1034.66 553.157 1035.26 553.757 1035.86 554.357C1033.73 552.757 1031.49 551.357 1029.16 550.157C1027.96 549.49 1026.73 548.89 1025.46 548.357C1025.16 548.257 1024.76 548.157 1024.46 547.957C1024.46 547.957 1025.46 548.357 1024.96 548.157C1024.83 548.09 1024.69 548.023 1024.56 547.957C1023.83 547.69 1023.13 547.423 1022.46 547.157C1017.16 545.157 1011.76 543.657 1006.26 542.457C1003.59 541.923 1000.93 541.457 998.259 541.057C997.592 540.923 996.959 540.823 996.359 540.757C996.026 540.69 995.726 540.657 995.459 540.657C995.326 540.59 995.192 540.557 995.059 540.557C994.159 540.457 995.959 540.657 995.359 540.657C994.159 540.457 992.959 540.29 991.759 540.157C987.892 539.757 983.959 539.457 979.959 539.257C978.159 539.157 976.359 539.057 974.559 539.057C971.959 539.057 969.459 536.757 969.559 534.057C969.759 531.357 971.759 529.057 974.559 529.057Z" fill="#0E4496"/>
<path d="M226.26 304.457C238.46 305.557 250.56 306.957 262.56 308.557C285.06 311.457 307.56 314.757 329.56 320.457C338.66 322.757 348.36 325.357 356.46 330.357C359.36 332.257 359.96 337.357 356.46 339.057C348.36 342.857 339.66 345.357 331.16 347.657C318.66 351.057 305.96 353.957 293.26 356.657C277.96 359.957 262.56 362.957 247.16 365.857C230.627 368.923 214.094 371.857 197.56 374.657C181.96 377.39 166.327 379.99 150.66 382.457C137.527 384.59 124.36 386.69 111.16 388.757C102.294 390.09 93.4271 391.423 84.5604 392.757C82.2937 393.09 80.0605 393.423 77.8605 393.757C76.2605 393.957 74.7604 394.257 73.1604 393.957C62.7604 391.657 52.5604 388.757 42.2604 386.257C30.3271 383.257 18.3939 380.257 6.46056 377.257C5.72723 377.057 5.02725 376.89 4.36059 376.757C-0.539406 375.557 -0.339406 368.457 4.36059 367.057C11.6939 364.99 18.9938 362.923 26.2605 360.857C43.8604 355.857 61.4604 350.89 79.0604 345.957C100.327 339.89 121.594 333.857 142.86 327.857C161.194 322.657 179.56 317.457 197.96 312.257C206.86 309.757 215.66 307.057 224.56 304.757C224.694 304.69 224.827 304.657 224.96 304.657C231.16 302.857 233.86 312.557 227.66 314.257C220.327 316.323 212.994 318.39 205.66 320.457C188.06 325.457 170.46 330.457 152.86 335.457C131.66 341.457 110.427 347.457 89.1604 353.457C70.7604 358.657 52.3938 363.857 34.0605 369.057C27.9938 370.79 21.9605 372.49 15.9605 374.157C13.1605 374.957 10.2606 375.957 7.36058 376.657C7.22725 376.657 7.09389 376.69 6.96056 376.757C6.96056 373.557 6.96056 370.323 6.96056 367.057C14.7605 369.057 22.5939 371.023 30.4605 372.957C42.7938 376.023 55.1605 379.123 67.5604 382.257C70.4271 382.923 73.2604 383.623 76.0604 384.357C75.1938 384.357 74.3271 384.357 73.4605 384.357C75.5938 384.023 77.7271 383.723 79.8605 383.457C85.6605 382.59 91.4938 381.69 97.3604 380.757C106.094 379.423 114.86 378.09 123.66 376.757C134.527 375.023 145.394 373.29 156.26 371.557C168.394 369.557 180.527 367.523 192.66 365.457C205.327 363.257 217.994 361.023 230.66 358.757C243.06 356.49 255.427 354.157 267.76 351.757C278.96 349.457 290.26 347.157 301.36 344.657C310.76 342.557 320.06 340.357 329.36 337.757C336.06 335.957 342.76 333.957 349.16 331.357C350.16 330.957 349.46 331.257 348.96 331.457C349.227 331.323 349.493 331.223 349.76 331.157C350.293 330.89 350.827 330.623 351.36 330.357C351.36 333.223 351.36 336.123 351.36 339.057C349.96 338.19 348.527 337.423 347.06 336.757C346.727 336.557 346.36 336.357 345.96 336.157C345.76 336.09 345.527 335.99 345.26 335.857C344.46 335.457 346.26 336.257 345.66 336.057C344.66 335.657 343.76 335.257 342.76 334.857C338.56 333.357 334.36 332.057 330.06 330.857C319.56 328.057 308.86 325.857 298.26 323.957C292.66 323.023 287.06 322.123 281.46 321.257C278.593 320.79 275.76 320.357 272.96 319.957C271.76 319.823 270.527 319.657 269.26 319.457C268.593 319.39 267.893 319.29 267.16 319.157C266.893 319.157 266.593 319.123 266.26 319.057C265.96 319.057 264.36 318.757 265.76 318.957C256.893 317.823 248.027 316.757 239.16 315.757C234.893 315.29 230.593 314.857 226.26 314.457C223.56 314.157 221.26 312.357 221.26 309.457C221.26 306.957 223.56 304.157 226.26 304.457Z" fill="#0E4496"/>
</svg>
